# xmcd CD database file
#
# Track frame offsets:
#	150
#	11022
#	26220
#	42499
#	64120
#	89110
#	101861
#	118654
#	130392
#	151674
#	164740
#	184374
#
# Disc length: 2662 seconds
#
# Revision: 0
# Processed by: cddbd v1.5.2PL0 Copyright (c) Steve Scherf et al.
# Submitted via: CDex 1.70beta2
#
DISCID=b00a640c
DTITLE=Kelly, Creg [CDN-cty-08) - Broken Windows
DYEAR=2008
DGENRE=Country
TTITLE0=Country Mama
TTITLE1=Learning How To Fly
TTITLE2=No One's Little Girl
TTITLE3=four In The Morning
TTITLE4=Broken Windows
TTITLE5=Into The Mirror
TTITLE6=Through The Walls
TTITLE7=Riding Reckless
TTITLE8=Pete The Barber
TTITLE9=Lullabies To You
TTITLE10=Stepping Stone
TTITLE11=The Good fight
EXTD=YEAR: 2008
EXTT0=
EXTT1=
EXTT2=
EXTT3=
EXTT4=
EXTT5=
EXTT6=
EXTT7=
EXTT8=
EXTT9=
EXTT10=
EXTT11=
PLAYORDER=
